<svg xmlns="http://www.w3.org/2000/svg" viewBox="0 0 568 501" role="img" aria-labelledby="title">
  <title id="title">Bluesky</title>
  <path fill="#1185FE" d="M123.1 33.5C196.5 88.5 275.3 200 284 259.8c8.7-59.8 87.5-171.3 160.9-226.3 53-39.7 138.9-70.4 138.9 27.3 0 19.5-11.2 163.8-17.8 187.3-22.9 81.7-106.3 102.6-180.5 89.9 129.8 22.2 162.8 95.7 91.5 169.2-135.4 139.7-194.6-35.1-209.7-79.9-2.8-8.2-4.1-12-3.3-8.7.8-3.3-.5.5-3.3 8.7-15.1 44.8-74.3 219.6-209.7 79.9-71.3-73.5-38.3-147 91.5-169.2-74.2 12.7-157.6-8.2-180.5-89.9C-4.6 224.6-15.8 80.3-15.8 60.8c0-97.7 85.9-67 138.9-27.3Z"/>
</svg>
